<svg width="20" height="20" viewBox="0 0 20 20" fill="none" xmlns="http://www.w3.org/2000/svg">
<path d="M7.49984 13.3335L9.99984 10.8335M9.99984 10.8335L12.4998 13.3335M9.99984 10.8335V16.6668M18.3332 7.50016H1.6665M4.58317 15.0002H4.33317C3.39975 15.0002 2.93304 15.0002 2.57652 14.8185C2.26292 14.6587 2.00795 14.4037 1.84816 14.0901C1.6665 13.7336 1.6665 13.2669 1.6665 12.3335V6.00016C1.6665 5.06674 1.6665 4.60003 1.84816 4.24351C2.00795 3.92991 2.26292 3.67494 2.57652 3.51515C2.93304 3.3335 3.39975 3.3335 4.33317 3.3335H15.6665C16.5999 3.3335 17.0666 3.3335 17.4232 3.51515C17.7368 3.67494 17.9917 3.92991 18.1515 4.24351C18.3332 4.60003 18.3332 5.06674 18.3332 6.00016V12.3335C18.3332 13.2669 18.3332 13.7336 18.1515 14.0901C17.9917 14.4038 17.7368 14.6587 17.4232 14.8185C17.0666 15.0002 16.5999 15.0002 15.6665 15.0002H15.4165" stroke="black" stroke-width="1.5" stroke-linecap="round" stroke-linejoin="round"/>
</svg>
