<svg width="16" height="14" viewBox="0 0 16 14" fill="none" xmlns="http://www.w3.org/2000/svg">
<path d="M2.2571 3.27791C1.75287 2.71437 1.50076 2.43259 1.49125 2.19312C1.48299 1.98509 1.57238 1.78515 1.73292 1.65259C1.91773 1.5 2.29583 1.5 3.05202 1.5H12.9473C13.7035 1.5 14.0816 1.5 14.2664 1.65259C14.427 1.78515 14.5163 1.98509 14.5081 2.19312C14.4986 2.43259 14.2465 2.71437 13.7422 3.27791L9.93808 7.52962C9.83756 7.64196 9.78731 7.69813 9.75147 7.76205C9.71969 7.81875 9.69637 7.87978 9.68225 7.94323C9.66633 8.01476 9.66633 8.09013 9.66633 8.24087V11.8056C9.66633 11.936 9.66633 12.0011 9.64531 12.0575C9.62673 12.1073 9.59651 12.1519 9.55717 12.1877C9.51265 12.2281 9.45213 12.2524 9.33108 12.3008L7.06441 13.2074C6.81938 13.3054 6.69687 13.3545 6.59852 13.334C6.51251 13.3161 6.43704 13.265 6.3885 13.1918C6.333 13.1081 6.333 12.9762 6.333 12.7122V8.24087C6.333 8.09013 6.333 8.01476 6.31708 7.94323C6.30296 7.87978 6.27964 7.81875 6.24786 7.76205C6.21203 7.69813 6.16177 7.64196 6.06126 7.52962L2.2571 3.27791Z" stroke="black" stroke-width="1.2" stroke-linecap="round" stroke-linejoin="round"/>
</svg>
