<svg width="24" height="24" viewBox="0 0 24 24" fill="none" xmlns="http://www.w3.org/2000/svg">
<path d="M18.7865 8.85582V18.3268C18.7828 19.1587 18.4526 19.9554 17.8678 20.5436C17.283 21.1319 16.491 21.464 15.6639 21.4677H5.62259C4.79534 21.4647 4.00283 21.1329 3.41787 20.5445C2.83291 19.9561 2.50297 19.1589 2.5 18.3268V8.85582C2.50238 8.14504 2.74371 7.45598 3.18477 6.90065C3.62582 6.34532 4.24066 5.95639 4.92931 5.7971C5.15618 5.74119 5.38902 5.71358 5.62259 5.71489H15.6639C16.4912 5.71788 17.2837 6.04975 17.8687 6.63815C18.4536 7.22654 18.7836 8.02371 18.7865 8.85582Z" stroke="#1F1F1F" stroke-width="1.5" stroke-miterlimit="10"/>
<path d="M18.9913 18.7193V18.7193C20.3769 18.7193 21.5001 17.596 21.5001 16.2105C21.5001 15.9837 21.5001 15.7868 21.5001 15.6455C21.5001 12.6763 21.498 9.70702 21.4982 6.73778C21.4984 4.66387 19.8166 2.98216 17.7427 2.98237C14.6992 2.98268 11.7106 2.98049 7.93306 2.98048C7.77161 2.98048 7.59846 2.98048 7.41933 2.98048C5.93708 2.98047 4.73536 4.18207 4.73535 5.66433V5.66433" stroke="#1F1F1F" stroke-width="1.5" stroke-miterlimit="10"/>
</svg>
