<svg width="20" height="20" viewBox="0 0 20 20" fill="none" xmlns="http://www.w3.org/2000/svg">
<g clip-path="url(#clip0_1_13896)">
<path d="M9.99984 5.83317H6.24984C5.6973 5.83317 5.1674 5.61368 4.7767 5.22298C4.386 4.83228 4.1665 4.30237 4.1665 3.74984C4.1665 3.1973 4.386 2.6674 4.7767 2.2767C5.1674 1.886 5.6973 1.6665 6.24984 1.6665C9.1665 1.6665 9.99984 5.83317 9.99984 5.83317ZM9.99984 5.83317H13.7498C14.3024 5.83317 14.8323 5.61368 15.223 5.22298C15.6137 4.83228 15.8332 4.30237 15.8332 3.74984C15.8332 3.1973 15.6137 2.6674 15.223 2.2767C14.8323 1.886 14.3024 1.6665 13.7498 1.6665C10.8332 1.6665 9.99984 5.83317 9.99984 5.83317ZM9.99984 5.83317L9.99984 18.3332M1.6665 11.6665H18.3332M1.6665 8.49984L1.6665 15.6665C1.6665 16.5999 1.6665 17.0666 1.84816 17.4232C2.00795 17.7368 2.26292 17.9917 2.57652 18.1515C2.93304 18.3332 3.39975 18.3332 4.33317 18.3332L15.6665 18.3332C16.5999 18.3332 17.0666 18.3332 17.4232 18.1515C17.7368 17.9917 17.9917 17.7368 18.1515 17.4232C18.3332 17.0666 18.3332 16.5999 18.3332 15.6665V8.49984C18.3332 7.56642 18.3332 7.09971 18.1515 6.74319C17.9917 6.42958 17.7368 6.17462 17.4232 6.01483C17.0666 5.83317 16.5999 5.83317 15.6665 5.83317L4.33317 5.83317C3.39975 5.83317 2.93304 5.83317 2.57652 6.01483C2.26292 6.17462 2.00795 6.42958 1.84816 6.74319C1.6665 7.09971 1.6665 7.56642 1.6665 8.49984Z" stroke="black" stroke-width="1.5" stroke-linecap="round" stroke-linejoin="round"/>
</g>
<defs>
<clipPath id="clip0_1_13896">
<rect width="20" height="20" fill="white"/>
</clipPath>
</defs>
</svg>
